<svg width="290" height="278" viewBox="0 0 290 278" fill="none" xmlns="http://www.w3.org/2000/svg">
<mask id="mask0_1028_3097" style="mask-type:alpha" maskUnits="userSpaceOnUse" x="0" y="1" width="290" height="277">
<path d="M287.107 12.937C287.048 6.30989 281.628 0.985268 275 1.04419L12.0107 3.38253C5.38359 3.44145 0.0589873 8.86159 0.117912 15.4887L2.3453 266.001C2.40423 272.628 7.82437 277.952 14.4515 277.893L277.441 275.555C284.068 275.496 289.393 270.076 289.334 263.449L287.107 12.937Z" fill="#FF7F4D"/>
</mask>
<g mask="url(#mask0_1028_3097)">
<path d="M153.296 304.026C149.212 298.875 146.958 294.589 145.756 291.185L144.939 291.692C140.629 272.405 148.916 253.643 148.916 253.643L176.339 245.962C176.339 245.962 180.565 259.188 184.02 267.334C189.396 274.579 198.101 276.884 198.101 276.884L203.416 311.96C203.42 311.965 165.071 318.876 153.296 304.026Z" fill="#E54728"/>
<path d="M113.745 217.107C96.1015 227.365 78.4811 232.535 58.1094 231.258L1.27617 202.834C-5.95886 182.434 -11.56 161.034 -10.5459 139.414C-9.53174 117.793 -1.16054 95.7734 15.5443 82.0123C23.4273 75.5191 32.8314 71.0682 40.658 64.5046C51.7289 55.2179 59.4616 41.8605 72.1804 34.9964C92.3549 24.1086 120.605 28.7332 130.272 50.0486C144.944 48.5134 162.907 63.0116 150.733 102.844C147.399 113.755 141.892 128.268 143.7 139.531C148.916 172.077 137.526 203.285 113.745 217.107Z" fill="#2E0031"/>
<path d="M-15.1235 210.834C-8.45187 162.846 31.1741 154.508 31.1741 154.508L112.59 157.386C112.59 157.386 132.943 158.264 147.921 176.833C162.898 195.402 170.386 202.89 170.964 220.173C171.541 237.455 161.17 262.226 156.564 270.865C151.953 279.504 155.414 302.547 155.414 302.547C155.414 302.547 93.4441 361.882 0.50618 348.821C3.19643 340.872 6.03226 332.445 6.82103 325.609C-13.3723 295.068 -20.6777 250.822 -15.1235 210.834Z" fill="#FF572F"/>
<path d="M157.522 300.025C157.682 300.767 157.301 301.546 156.536 301.757C155.832 301.95 154.963 301.522 154.803 300.771C153.381 294.198 153.033 287.409 153.794 280.728C154.564 273.939 156.386 267.333 159.231 261.122C160.799 257.699 162.691 254.431 164.874 251.361C165.316 250.741 166.104 250.445 166.799 250.854C167.41 251.211 167.748 252.159 167.306 252.779C163.546 258.061 160.677 263.934 158.813 270.141C156.954 276.315 156.076 282.752 156.235 289.198C156.325 292.846 156.752 296.461 157.522 300.025Z" fill="#180205"/>
<path d="M55.1796 95.7503C54.4097 80.5806 67.659 82.6934 71.1192 89.797C71.1192 89.797 86.4813 90.3745 95.8902 76.1626C105.299 61.9555 120.342 60.993 126.675 69.2516C126.675 69.2516 136.211 67.5238 137.558 81.9234C138.901 96.323 133.112 141.639 103.937 141.067C103.937 141.067 104.144 152.203 104.914 156.044L112.595 157.386C112.595 157.386 106.623 175.702 77.8378 176.782C41.9303 178.124 31.1787 154.508 31.1787 154.508L52.3016 149.518C52.3016 149.518 66.5087 130.7 69.199 108.812C69.199 108.807 55.9496 110.92 55.1796 95.7503Z" fill="#FFBEAE"/>
<path d="M49.7383 173.06C44.3296 170.652 39.3153 167.403 34.8832 163.473C34.3151 162.966 34.3668 161.994 34.8832 161.482C35.4466 160.919 36.3058 160.975 36.8739 161.482C44.386 168.14 53.7197 172.614 63.5745 174.464C73.4857 176.323 83.796 175.267 93.2048 171.694C98.4679 169.694 103.468 166.863 107.867 163.351C108.459 162.877 109.281 162.769 109.858 163.351C110.351 163.844 110.454 164.867 109.858 165.342C101.459 172.051 91.3455 176.319 80.6878 177.713C70.1663 179.089 59.4147 177.37 49.7383 173.06Z" fill="#180205"/>
<path d="M53.2454 274.127C52.2547 270.418 51.2594 266.709 50.2687 262.999C48.6912 257.112 47.1183 251.229 45.5408 245.342C45.1793 243.989 44.8178 242.642 44.4563 241.29C43.9868 239.538 46.7052 238.787 47.1747 240.539C48.1653 244.248 49.1607 247.957 50.1514 251.666C51.7289 257.553 53.3017 263.436 54.8792 269.324C55.2407 270.676 55.6022 272.023 55.9637 273.375C56.4332 275.131 53.7149 275.878 53.2454 274.127Z" fill="#180205"/>
<path d="M33.2915 227.094L92.6225 161.425C92.6225 161.425 119.891 164.495 141.249 169.918C162.606 175.341 182.086 185.623 182.086 185.623C182.086 185.623 192.857 175.252 211.674 172.768C230.492 170.284 256.606 167.956 256.606 167.956L264.545 177.58L194.392 212.408L36.456 242.179L33.2915 227.094Z" fill="#FCF4E6"/>
<path d="M122.577 263.961L33.2917 245.969L93.3739 174.065L170.992 190.803H186.523L268.897 176.84L211.867 245.969L146.198 261.082L122.577 263.961Z" fill="#0E6AC3"/>
<path d="M170.992 190.802H186.523L146.197 261.082L122.577 263.96L170.992 190.802Z" fill="#1058C1"/>
<path d="M139.286 253.648L126.999 263.958C126.999 263.958 113.558 257.54 107.797 251.15C107.797 251.15 117.783 244.183 119.318 227.285C120.854 210.388 129.112 211.538 132.953 213.458C136.793 215.379 135.831 221.139 141.211 222.29C146.587 223.44 166.94 209.618 175.969 213.266C184.992 216.914 182.88 227.473 177.119 234.196C171.353 240.915 157.911 251.019 139.286 253.648Z" fill="#FFBEAE"/>
<path d="M24.648 337.115C1.57666 333.82 -11.7197 293.733 -15.086 255.352C-17.0156 233.36 54.6022 273.751 54.6022 273.751C64.3961 270.873 111.055 245.966 111.055 245.966C121.426 256.201 131.216 262.807 131.216 262.807C119.699 280.09 60.9405 342.303 24.648 337.115Z" fill="#FF572F"/>
<path d="M49.5592 274.877C49.706 274.815 49.2987 274.986 49.5592 274.877V274.877Z" fill="#180205"/>
<path d="M111.769 247.183C111.45 247.347 111.13 247.511 110.811 247.68C110.562 247.441 110.309 247.206 110.06 246.962C110.633 247.037 111.201 247.107 111.769 247.183Z" fill="#180205"/>
<path d="M110.811 247.681C111.13 247.517 111.449 247.352 111.769 247.183C111.201 247.108 110.633 247.038 110.06 246.963C110.309 247.207 110.562 247.437 110.811 247.681C109.257 248.489 107.698 249.301 106.139 250.104C101.557 252.475 96.9653 254.832 92.3689 257.174C86.5799 260.123 80.7816 263.053 74.9597 265.945C69.4572 268.677 63.9359 271.386 58.3676 273.983C54.635 275.724 50.8743 277.551 46.9727 278.889C46.7145 278.978 46.4516 279.063 46.1839 279.142C44.4421 279.659 43.7003 276.94 45.4327 276.424C46.8319 276.011 48.184 275.438 49.5315 274.879C49.5409 274.875 49.5456 274.875 49.555 274.87C49.7005 274.809 49.2968 274.978 49.555 274.87C49.5644 274.865 49.5643 274.865 49.5737 274.861C49.6723 274.818 49.7756 274.776 49.8742 274.734C50.1278 274.626 50.3813 274.518 50.6301 274.41C51.1231 274.199 51.6114 273.983 52.0997 273.762C53.2077 273.269 54.3063 272.767 55.405 272.26C60.8089 269.766 66.1566 267.156 71.4901 264.517C77.3542 261.621 83.1948 258.677 89.026 255.71C93.8243 253.268 98.6179 250.813 103.402 248.338C105.679 247.16 107.938 245.925 110.238 244.794C110.271 244.78 110.304 244.761 110.332 244.742C110.895 244.451 111.576 244.507 112.041 244.963C117.811 250.648 124.009 255.949 130.596 260.653C131.032 260.968 131.474 261.278 131.92 261.583C132.521 261.992 132.868 262.841 132.427 263.508C129.934 267.241 127.051 270.729 124.14 274.142C119.957 279.044 115.567 283.772 111.046 288.363C105.684 293.814 100.13 299.077 94.383 304.115C88.3265 309.425 82.0492 314.491 75.5044 319.182C69.2835 323.637 62.7996 327.769 55.9543 331.201C49.9165 334.229 43.5266 336.802 36.8643 338.046C30.7702 339.182 24.3192 339.281 18.5256 336.821C11.652 333.905 6.43124 328.074 2.43578 321.938C-2.64424 314.134 -6.12796 305.298 -8.84167 296.43C-11.9639 286.227 -14.0344 275.72 -15.4241 265.147C-15.7668 262.536 -16.0626 259.916 -16.3162 257.292C-16.3913 256.536 -15.6166 255.883 -14.9077 255.883C-14.086 255.883 -13.5743 256.531 -13.4992 257.292C-12.4803 267.795 -10.7619 278.241 -8.14212 288.467C-5.78992 297.655 -2.74283 306.773 1.73152 315.167C5.21053 321.698 9.76936 328.252 15.9574 332.267C18.704 334.051 21.4553 335.192 24.7277 335.703C24.7981 335.713 25.0892 335.755 25.1127 335.76C25.0798 335.755 25.0517 335.75 25.0188 335.75C25.0986 335.76 25.1174 335.764 25.1127 335.76C25.2254 335.774 25.3427 335.788 25.4554 335.802C25.8122 335.844 26.1691 335.877 26.5259 335.905C27.2254 335.962 27.9297 335.99 28.6339 335.999C30.0612 336.018 31.4885 335.948 32.9064 335.802C33.2445 335.769 33.5778 335.727 33.9111 335.685C34.0285 335.671 34.0567 335.666 34.0614 335.666C34.0661 335.666 34.0567 335.666 34.0614 335.666C34.0661 335.666 34.0943 335.661 34.2116 335.642C34.4135 335.614 34.6201 335.581 34.822 335.548C35.5544 335.431 36.2868 335.3 37.0145 335.149C38.5686 334.83 40.1039 334.436 41.6251 333.985C44.7942 333.046 47.9024 331.849 50.7945 330.548C57.5084 327.525 63.8654 323.745 69.9595 319.623C76.4434 315.238 82.6361 310.435 88.6128 305.383C94.4769 300.425 100.134 295.223 105.599 289.833C110.365 285.133 114.994 280.288 119.431 275.274C121.239 273.231 123.013 271.161 124.741 269.048C125.478 268.147 126.206 267.236 126.919 266.316C126.957 266.269 127.07 266.118 127.093 266.09C127.065 266.128 127.037 266.165 127.004 266.203C127.084 266.095 127.103 266.072 127.093 266.09C127.135 266.039 127.173 265.987 127.215 265.931C127.38 265.715 127.544 265.503 127.704 265.287C127.99 264.907 128.276 264.522 128.558 264.132C128.798 263.804 129.023 263.466 129.258 263.132C129.671 263.424 130.089 263.715 130.506 263.996C130.337 263.353 130.168 262.71 129.999 262.071C129.76 262.433 129.502 262.78 129.258 263.132C124.915 260.099 120.793 256.7 116.816 253.217C114.769 251.442 112.769 249.583 110.811 247.681Z" fill="#180205"/>
<path d="M127.003 266.226C127.032 266.188 127.06 266.151 127.093 266.113C127.107 266.098 127.088 266.122 127.003 266.226Z" fill="#180205"/>
<path d="M130.507 264.024C130.089 263.742 129.671 263.451 129.258 263.16C129.507 262.808 129.76 262.456 130 262.099C130.173 262.738 130.342 263.381 130.507 264.024Z" fill="#180205"/>
<path d="M198.232 219.008C201.303 211.693 225.431 196.993 238.938 213.143C252.45 229.294 233.177 251.145 233.177 251.145L227.801 266.258C216.28 270.484 199.383 260.882 199.383 260.882L203.223 255.507C199.382 243.22 204.373 238.177 204.373 238.177C197.852 234.294 195.162 226.322 198.232 219.008Z" fill="#FFBEAE"/>
<path d="M184.025 267.339C184.025 267.339 195.565 262.109 199.002 257.334C199.002 257.334 209.374 263.189 230.492 263.959C230.492 263.959 223.196 301.979 203.416 311.965L184.025 267.339Z" fill="#E54728"/>
<path d="M68.0865 96.5197C67.9645 93.2519 64.7108 90.6415 61.5135 91.0452C61.1332 91.0922 60.8092 90.6884 60.8092 90.341C60.8092 89.9231 61.1332 89.6837 61.5135 89.6367C65.4949 89.1344 69.3448 92.5618 69.495 96.5197C69.5279 97.4258 68.1194 97.4258 68.0865 96.5197Z" fill="#180205"/>
<path d="M100.674 100.661C99.3175 100.412 98.5146 98.5854 98.8808 96.59C99.2517 94.5946 100.651 93.1767 102.008 93.4256C103.365 93.6744 104.167 95.5008 103.801 97.4962C103.435 99.4962 102.031 100.909 100.674 100.661Z" fill="#180205"/>
<path d="M101.778 99.9769C101.249 99.9769 100.82 99.5481 100.82 99.0191C100.82 98.4901 101.249 98.0613 101.778 98.0613C102.307 98.0613 102.736 98.4901 102.736 99.0191C102.736 99.5481 102.307 99.9769 101.778 99.9769Z" fill="white"/>
<path d="M121.772 106.123C120.481 105.63 120.022 103.692 120.747 101.796C121.472 99.8994 123.107 98.762 124.398 99.2555C125.689 99.7491 126.147 101.687 125.422 103.583C124.697 105.48 123.063 106.617 121.772 106.123Z" fill="#180205"/>
<path d="M122.999 105.625C122.478 105.526 122.135 105.029 122.229 104.507C122.328 103.986 122.825 103.644 123.347 103.737C123.868 103.831 124.21 104.334 124.117 104.855C124.023 105.376 123.52 105.723 122.999 105.625Z" fill="white"/>
<path d="M106.182 87.6718C105.623 86.6718 104.708 85.9065 103.599 85.5919C102.388 85.2445 101.102 85.484 100.05 86.1648C99.2894 86.6577 98.5805 85.4417 99.3411 84.9487C100.693 84.0708 102.421 83.7891 103.975 84.2351C105.421 84.6483 106.67 85.6483 107.398 86.9629C107.839 87.7564 106.623 88.4653 106.182 87.6718Z" fill="#180205"/>
<path d="M129.662 95.0544C129.103 94.0544 128.187 93.2891 127.079 92.9745C125.868 92.6271 124.581 92.8665 123.53 93.5473C122.769 94.0403 122.06 92.8243 122.821 92.3313C124.173 91.4534 125.901 91.1716 127.455 91.6177C128.901 92.0308 130.15 93.0309 130.878 94.3455C131.319 95.1342 130.103 95.8479 129.662 95.0544Z" fill="#180205"/>
<path d="M115.393 112.014C115.262 111.746 115.145 111.474 115.027 111.207C115.29 111.146 115.553 111.07 115.816 110.981C115.675 111.329 115.534 111.671 115.393 112.014Z" fill="#180205"/>
<path d="M116.192 112.338C114.717 112.84 113.173 112.939 111.642 112.69C110.75 112.545 111.13 111.188 112.018 111.333C113.032 111.498 114.046 111.441 115.032 111.207C115.149 111.479 115.267 111.751 115.398 112.014C115.539 111.671 115.68 111.324 115.821 110.981C115.563 111.07 115.3 111.145 115.032 111.207C113.825 108.441 113.253 105.432 113.426 102.408C113.478 101.507 114.886 101.502 114.835 102.408C114.661 105.479 115.257 108.544 116.619 111.305C116.821 111.728 116.642 112.188 116.192 112.338Z" fill="#180205"/>
<path d="M100.735 117.34C100.158 116.649 101.148 115.649 101.731 116.344C103.966 119.002 107.646 120.222 111.017 119.344C111.895 119.114 112.271 120.476 111.393 120.701C107.571 121.697 103.289 120.373 100.735 117.34Z" fill="#180205"/>
<path d="M82.3826 132.237C90.5097 140.688 103.937 141.068 103.937 141.068L104.318 150.402C84.9415 147.406 82.3826 132.237 82.3826 132.237Z" fill="#180205"/>
<path d="M211.388 238.446C214.787 239.296 218.37 239.225 221.75 238.319C223.501 237.85 224.252 240.568 222.496 241.038C216.144 242.742 209.041 241.784 203.604 237.981C198.707 234.558 195.467 229.112 195.65 223.032C195.754 219.624 196.899 216.379 199.049 213.727C199.528 213.135 200.543 213.229 201.04 213.727C201.622 214.309 201.519 215.126 201.04 215.717C197.918 219.567 197.697 225.375 199.909 229.704C202.19 234.173 206.58 237.239 211.388 238.446Z" fill="#180205"/>
</g>
</svg>
