<svg width="165" height="47" viewBox="0 0 165 47" fill="none" xmlns="http://www.w3.org/2000/svg">
<path d="M60.7416 40.3471V33.6609H64.4781V34.0862H61.2127V36.597H62.4612C62.9917 36.597 63.4277 36.6625 63.7692 36.7936C64.1107 36.9217 64.3637 37.1198 64.5284 37.3882C64.696 37.6565 64.7799 38.001 64.7799 38.4217C64.7799 39.0498 64.597 39.5285 64.2311 39.8578C63.8683 40.184 63.3149 40.3471 62.571 40.3471H60.7416ZM61.2127 39.9309H62.5024C63.1243 39.9309 63.5771 39.8105 63.8607 39.5696C64.1472 39.3257 64.2905 38.9431 64.2905 38.4217C64.2905 38.0589 64.2189 37.7754 64.0756 37.5711C63.9323 37.3668 63.7189 37.2235 63.4353 37.1412C63.1548 37.0589 62.8073 37.0177 62.3926 37.0177H61.2127V39.9309Z" fill="#11142D"/>
<path d="M67.9401 35.289C68.4858 35.289 68.8944 35.4262 69.1657 35.7006C69.4371 35.975 69.5728 36.4125 69.5728 37.0131V40.3471H69.216L69.1337 39.4782H69.1063C68.9996 39.6641 68.87 39.8303 68.7175 39.9767C68.5651 40.12 68.3776 40.2328 68.155 40.3151C67.9355 40.3974 67.6672 40.4386 67.3501 40.4386C67.03 40.4386 66.7556 40.3852 66.5269 40.2785C66.3013 40.1718 66.126 40.0163 66.001 39.812C65.879 39.6077 65.818 39.3593 65.818 39.0666C65.818 38.5726 66.0223 38.1976 66.4309 37.9415C66.8394 37.6824 67.4263 37.536 68.1916 37.5025L69.1154 37.4568V37.0955C69.1154 36.5863 69.0148 36.2235 68.8136 36.007C68.6123 35.7905 68.3151 35.6823 67.9218 35.6823C67.6657 35.6823 67.4187 35.7158 67.1809 35.7829C66.9461 35.8469 66.7068 35.9399 66.4629 36.0619L66.3165 35.6777C66.5543 35.5649 66.8089 35.4719 67.0803 35.3987C67.3547 35.3256 67.6413 35.289 67.9401 35.289ZM69.1108 37.818L68.2419 37.8546C67.6108 37.8851 67.1306 37.9979 66.8013 38.1931C66.472 38.3882 66.3074 38.6809 66.3074 39.0711C66.3074 39.3852 66.405 39.626 66.6001 39.7937C66.7983 39.9614 67.0727 40.0453 67.4233 40.0453C67.969 40.0453 68.3852 39.8898 68.6718 39.5788C68.9614 39.2678 69.1078 38.844 69.1108 38.3074V37.818Z" fill="#11142D"/>
<path d="M73.3732 35.2798C74.0135 35.2798 74.5089 35.4948 74.8595 35.9247C75.2132 36.3546 75.39 36.9887 75.39 37.8272C75.39 38.3882 75.3062 38.8638 75.1385 39.2541C74.9708 39.6413 74.7315 39.9355 74.4205 40.1367C74.1125 40.338 73.7421 40.4386 73.3092 40.4386C73.0104 40.4386 72.7497 40.3944 72.5271 40.3059C72.3076 40.2145 72.1247 40.0925 71.9783 39.9401C71.832 39.7846 71.7192 39.6138 71.6399 39.4279H71.6079C71.617 39.6016 71.6247 39.7831 71.6308 39.9721C71.6369 40.1611 71.6399 40.3395 71.6399 40.5072V42.5469H71.1734V35.3759H71.5576L71.6125 36.3683H71.6399C71.7222 36.1793 71.8381 36.0009 71.9875 35.8332C72.1369 35.6655 72.3259 35.5314 72.5546 35.4308C72.7832 35.3301 73.0561 35.2798 73.3732 35.2798ZM73.3137 35.6869C72.9387 35.6869 72.6262 35.7692 72.3762 35.9338C72.1292 36.0954 71.9448 36.3332 71.8228 36.6473C71.7039 36.9583 71.6429 37.3394 71.6399 37.7906V37.8684C71.6399 38.3531 71.6994 38.7571 71.8183 39.0803C71.9402 39.4004 72.1216 39.6398 72.3625 39.7983C72.6064 39.9568 72.9082 40.0361 73.268 40.0361C73.6217 40.0361 73.9205 39.9492 74.1644 39.7754C74.4083 39.6016 74.5943 39.3501 74.7223 39.0208C74.8504 38.6916 74.9144 38.2921 74.9144 37.8226C74.9144 37.1244 74.7803 36.5939 74.512 36.2311C74.2467 35.8683 73.8473 35.6869 73.3137 35.6869Z" fill="#11142D"/>
<path d="M77.137 35.3759V37.0452C77.137 37.4628 77.2407 37.7677 77.448 37.9598C77.6554 38.1488 77.9587 38.2434 78.3581 38.2434C78.6996 38.2434 79.006 38.19 79.2774 38.0833C79.5518 37.9766 79.814 37.8333 80.064 37.6534V35.3759H80.5259V40.3471H80.064V38.0559C79.7926 38.2388 79.5198 38.3821 79.2454 38.4858C78.974 38.5894 78.6539 38.6412 78.285 38.6412C77.7575 38.6412 77.3566 38.5071 77.0822 38.2388C76.8108 37.9674 76.6751 37.5879 76.6751 37.1V35.3759H77.137Z" fill="#11142D"/>
<path d="M83.9193 35.289C84.4651 35.289 84.8736 35.4262 85.145 35.7006C85.4163 35.975 85.552 36.4125 85.552 37.0131V40.3471H85.1953L85.1129 39.4782H85.0855C84.9788 39.6641 84.8492 39.8303 84.6968 39.9767C84.5443 40.12 84.3568 40.2328 84.1343 40.3151C83.9147 40.3974 83.6464 40.4386 83.3293 40.4386C83.0092 40.4386 82.7348 40.3852 82.5061 40.2785C82.2805 40.1718 82.1052 40.0163 81.9802 39.812C81.8583 39.6077 81.7973 39.3593 81.7973 39.0666C81.7973 38.5726 82.0016 38.1976 82.4101 37.9415C82.8187 37.6824 83.4056 37.536 84.1708 37.5025L85.0947 37.4568V37.0955C85.0947 36.5863 84.994 36.2235 84.7928 36.007C84.5916 35.7905 84.2943 35.6823 83.901 35.6823C83.6449 35.6823 83.3979 35.7158 83.1601 35.7829C82.9254 35.8469 82.686 35.9399 82.4421 36.0619L82.2958 35.6777C82.5336 35.5649 82.7882 35.4719 83.0595 35.3987C83.3339 35.3256 83.6205 35.289 83.9193 35.289ZM85.0901 37.818L84.2211 37.8546C83.59 37.8851 83.1098 37.9979 82.7805 38.1931C82.4513 38.3882 82.2866 38.6809 82.2866 39.0711C82.2866 39.3852 82.3842 39.626 82.5793 39.7937C82.7775 39.9614 83.0519 40.0453 83.4025 40.0453C83.9483 40.0453 84.3644 39.8898 84.651 39.5788C84.9407 39.2678 85.087 38.844 85.0901 38.3074V37.818Z" fill="#11142D"/>
<path d="M92.7504 35.7829H91.0674V40.3471H90.6147V35.7829H88.9408V35.3759H92.7504V35.7829Z" fill="#11142D"/>
<path d="M92.9425 35.3759H93.4318L94.6392 38.5315C94.7124 38.7175 94.7764 38.8897 94.8313 39.0483C94.8892 39.2038 94.9395 39.3471 94.9822 39.4782C95.0249 39.6062 95.06 39.7236 95.0874 39.8303H95.1148C95.1606 39.6901 95.2215 39.5102 95.2978 39.2907C95.374 39.0681 95.4609 38.8211 95.5584 38.5498L96.7521 35.3759H97.246L94.9776 41.2801C94.8679 41.5667 94.7474 41.809 94.6163 42.0072C94.4852 42.2084 94.3313 42.3594 94.1544 42.46C93.9776 42.5636 93.7642 42.6155 93.5142 42.6155C93.4014 42.6155 93.2992 42.6063 93.2078 42.588C93.1163 42.5728 93.0279 42.5514 92.9425 42.524V42.1261C93.0218 42.1505 93.1026 42.1703 93.1849 42.1856C93.2703 42.2039 93.3632 42.213 93.4639 42.213C93.6376 42.213 93.787 42.1764 93.912 42.1033C94.0401 42.0331 94.1544 41.9234 94.255 41.774C94.3557 41.6246 94.4502 41.434 94.5386 41.2023L94.877 40.3197L92.9425 35.3759Z" fill="#11142D"/>
<path d="M100.264 35.2798C100.905 35.2798 101.4 35.4948 101.751 35.9247C102.104 36.3546 102.281 36.9887 102.281 37.8272C102.281 38.3882 102.197 38.8638 102.03 39.2541C101.862 39.6413 101.623 39.9355 101.312 40.1367C101.004 40.338 100.633 40.4386 100.2 40.4386C99.9016 40.4386 99.6409 40.3944 99.4183 40.3059C99.1988 40.2145 99.0159 40.0925 98.8695 39.9401C98.7232 39.7846 98.6104 39.6138 98.5311 39.4279H98.4991C98.5083 39.6016 98.5159 39.7831 98.522 39.9721C98.5281 40.1611 98.5311 40.3395 98.5311 40.5072V42.5469H98.0646V35.3759H98.4488L98.5037 36.3683H98.5311C98.6134 36.1793 98.7293 36.0009 98.8787 35.8332C99.0281 35.6655 99.2171 35.5314 99.4458 35.4308C99.6744 35.3301 99.9473 35.2798 100.264 35.2798ZM100.205 35.6869C99.8299 35.6869 99.5174 35.7692 99.2674 35.9338C99.0205 36.0954 98.836 36.3332 98.7141 36.6473C98.5951 36.9583 98.5342 37.3394 98.5311 37.7906V37.8684C98.5311 38.3531 98.5906 38.7571 98.7095 39.0803C98.8314 39.4004 99.0128 39.6398 99.2537 39.7983C99.4976 39.9568 99.7995 40.0361 100.159 40.0361C100.513 40.0361 100.812 39.9492 101.056 39.7754C101.3 39.6016 101.485 39.3501 101.614 39.0208C101.742 38.6916 101.806 38.2921 101.806 37.8226C101.806 37.1244 101.671 36.5939 101.403 36.2311C101.138 35.8683 100.739 35.6869 100.205 35.6869Z" fill="#11142D"/>
<path d="M107.042 35.3759V39.9401H107.71V42.0301H107.257V40.3471H103.452V42.0301H103.004V39.9401H103.338C103.618 39.5529 103.853 39.1214 104.042 38.6458C104.231 38.1702 104.374 37.658 104.472 37.1092C104.572 36.5573 104.626 35.9796 104.632 35.3759H107.042ZM106.589 35.7646H105.053C105.028 36.3104 104.967 36.8333 104.87 37.3333C104.772 37.8302 104.638 38.2982 104.467 38.7373C104.297 39.1733 104.089 39.5742 103.845 39.9401H106.589V35.7646Z" fill="#11142D"/>
<path d="M110.49 35.289C111.036 35.289 111.445 35.4262 111.716 35.7006C111.987 35.975 112.123 36.4125 112.123 37.0131V40.3471H111.766L111.684 39.4782H111.657C111.55 39.6641 111.42 39.8303 111.268 39.9767C111.115 40.12 110.928 40.2328 110.705 40.3151C110.486 40.3974 110.218 40.4386 109.9 40.4386C109.58 40.4386 109.306 40.3852 109.077 40.2785C108.852 40.1718 108.676 40.0163 108.551 39.812C108.429 39.6077 108.368 39.3593 108.368 39.0666C108.368 38.5726 108.573 38.1976 108.981 37.9415C109.39 37.6824 109.977 37.536 110.742 37.5025L111.666 37.4568V37.0955C111.666 36.5863 111.565 36.2235 111.364 36.007C111.163 35.7905 110.865 35.6823 110.472 35.6823C110.216 35.6823 109.969 35.7158 109.731 35.7829C109.496 35.8469 109.257 35.9399 109.013 36.0619L108.867 35.6777C109.105 35.5649 109.359 35.4719 109.631 35.3987C109.905 35.3256 110.192 35.289 110.49 35.289ZM111.661 37.818L110.792 37.8546C110.161 37.8851 109.681 37.9979 109.352 38.1931C109.022 38.3882 108.858 38.6809 108.858 39.0711C108.858 39.3852 108.955 39.626 109.15 39.7937C109.349 39.9614 109.623 40.0453 109.974 40.0453C110.519 40.0453 110.936 39.8898 111.222 39.5788C111.512 39.2678 111.658 38.844 111.661 38.3074V37.818Z" fill="#11142D"/>
<path d="M116.651 35.3759V35.7829H114.19V40.3471H113.724V35.3759H116.651Z" fill="#11142D"/>
<path d="M118.123 35.3759V38.9477C118.123 39.0178 118.122 39.0894 118.119 39.1626C118.119 39.2358 118.117 39.3105 118.114 39.3867C118.114 39.4629 118.113 39.5376 118.11 39.6108C118.107 39.684 118.102 39.7556 118.096 39.8257L121.064 35.3759H121.631V40.3471H121.192V36.7433C121.192 36.6518 121.192 36.5573 121.192 36.4598C121.195 36.3591 121.198 36.2601 121.201 36.1625C121.204 36.0619 121.207 35.9674 121.21 35.8789L118.228 40.3471H117.675V35.3759H118.123Z" fill="#11142D"/>
<path d="M128.441 35.3759H128.976L126.726 37.7906L129.113 40.3471H128.541L126.2 37.8272V40.3471H125.733V35.3759H126.2V37.7906L128.441 35.3759Z" fill="#11142D"/>
<path d="M130.48 35.3759V38.9477C130.48 39.0178 130.479 39.0894 130.476 39.1626C130.476 39.2358 130.474 39.3105 130.471 39.3867C130.471 39.4629 130.47 39.5376 130.467 39.6108C130.464 39.684 130.459 39.7556 130.453 39.8257L133.421 35.3759H133.988V40.3471H133.549V36.7433C133.549 36.6518 133.549 36.5573 133.549 36.4598C133.552 36.3591 133.555 36.2601 133.558 36.1625C133.561 36.0619 133.564 35.9674 133.567 35.8789L130.586 40.3471H130.032V35.3759H130.48Z" fill="#11142D"/>
<path d="M138.822 35.7829H137.139V40.3471H136.686V35.7829H135.013V35.3759H138.822V35.7829Z" fill="#11142D"/>
<path d="M143.958 37.8546C143.958 38.2388 143.911 38.5894 143.816 38.9065C143.722 39.2205 143.582 39.4919 143.396 39.7206C143.21 39.9492 142.978 40.1261 142.7 40.2511C142.426 40.3761 142.106 40.4386 141.74 40.4386C141.392 40.4386 141.083 40.3776 140.812 40.2556C140.54 40.1306 140.31 39.9538 140.121 39.7251C139.935 39.4965 139.793 39.2251 139.696 38.9111C139.598 38.594 139.549 38.2418 139.549 37.8546C139.549 37.3211 139.638 36.8622 139.815 36.4781C139.995 36.0908 140.251 35.7951 140.583 35.5908C140.918 35.3835 141.319 35.2798 141.786 35.2798C142.267 35.2798 142.668 35.3896 142.989 35.6091C143.312 35.8256 143.554 36.1274 143.716 36.5146C143.877 36.9019 143.958 37.3485 143.958 37.8546ZM140.025 37.8546C140.025 38.2906 140.088 38.6717 140.213 38.998C140.338 39.3242 140.527 39.5788 140.78 39.7617C141.036 39.9446 141.359 40.0361 141.749 40.0361C142.149 40.0361 142.476 39.9446 142.732 39.7617C142.989 39.5788 143.178 39.3227 143.3 38.9934C143.421 38.6641 143.482 38.2845 143.482 37.8546C143.482 37.4369 143.425 37.065 143.309 36.7387C143.193 36.4125 143.01 36.1564 142.76 35.9704C142.51 35.7814 142.184 35.6869 141.781 35.6869C141.205 35.6869 140.767 35.8789 140.469 36.2631C140.173 36.6473 140.025 37.1778 140.025 37.8546Z" fill="#11142D"/>
<path d="M145.06 37.3607C145.06 36.7357 145.109 36.1976 145.207 35.7463C145.307 35.2951 145.455 34.9231 145.65 34.6304C145.848 34.3347 146.094 34.1106 146.387 33.9581C146.713 33.7478 147.105 33.5862 147.562 33.4734C148.022 33.3606 148.556 33.2691 149.163 33.199L149.236 33.6106C148.919 33.6472 148.624 33.6883 148.353 33.7341C148.085 33.7798 147.839 33.8316 147.617 33.8895C147.394 33.9444 147.194 34.0069 147.018 34.0771C146.844 34.1472 146.693 34.2265 146.565 34.3149C146.364 34.4368 146.191 34.6091 146.048 34.8317C145.905 35.0512 145.79 35.3225 145.705 35.6457C145.62 35.9689 145.566 36.347 145.545 36.7799H145.582C145.694 36.5756 145.841 36.3942 146.021 36.2357C146.204 36.0771 146.414 35.9521 146.652 35.8607C146.89 35.7661 147.15 35.7189 147.434 35.7189C147.852 35.7189 148.202 35.8073 148.486 35.9841C148.772 36.1579 148.989 36.414 149.135 36.7525C149.281 37.0878 149.355 37.4964 149.355 37.9781C149.355 38.472 149.275 38.905 149.117 39.2769C148.958 39.6459 148.72 39.9324 148.403 40.1367C148.089 40.338 147.696 40.4386 147.223 40.4386C146.839 40.4386 146.51 40.3608 146.236 40.2053C145.961 40.0468 145.737 39.8288 145.563 39.5513C145.393 39.2708 145.266 38.9446 145.184 38.5726C145.101 38.1976 145.06 37.7937 145.06 37.3607ZM147.26 40.0361C147.626 40.0361 147.928 39.9553 148.166 39.7937C148.403 39.6291 148.58 39.3958 148.696 39.094C148.812 38.7891 148.87 38.4278 148.87 38.0101C148.87 37.3912 148.743 36.9232 148.49 36.6061C148.237 36.286 147.867 36.1259 147.379 36.1259C147.095 36.1259 146.838 36.1777 146.606 36.2814C146.374 36.3851 146.169 36.5284 145.989 36.7113C145.812 36.8912 145.659 37.0985 145.531 37.3333C145.531 37.6717 145.557 38.0025 145.609 38.3257C145.661 38.6458 145.751 38.9355 145.879 39.1946C146.007 39.4538 146.182 39.6596 146.405 39.812C146.63 39.9614 146.915 40.0361 147.26 40.0361Z" fill="#11142D"/>
<path d="M154.157 40.3471H153.695V35.7783H151.957C151.899 36.5619 151.83 37.2449 151.751 37.8272C151.672 38.4065 151.57 38.8867 151.445 39.2678C151.32 39.6459 151.164 39.9279 150.978 40.1139C150.792 40.2998 150.562 40.3928 150.288 40.3928C150.208 40.3928 150.138 40.3883 150.077 40.3791C150.016 40.373 149.967 40.3639 149.931 40.3517V39.9767C149.967 39.9858 150.009 39.9934 150.054 39.9995C150.1 40.0026 150.156 40.0041 150.224 40.0041C150.379 40.0041 150.518 39.9462 150.64 39.8303C150.762 39.7114 150.87 39.5315 150.964 39.2907C151.062 39.0498 151.146 38.7464 151.216 38.3806C151.286 38.0116 151.347 37.5772 151.399 37.0772C151.454 36.5771 151.503 36.0101 151.545 35.3759H154.157V40.3471Z" fill="#11142D"/>
<path d="M157.55 35.289C158.096 35.289 158.504 35.4262 158.776 35.7006C159.047 35.975 159.183 36.4125 159.183 37.0131V40.3471H158.826L158.744 39.4782H158.716C158.61 39.6641 158.48 39.8303 158.327 39.9767C158.175 40.12 157.988 40.2328 157.765 40.3151C157.545 40.3974 157.277 40.4386 156.96 40.4386C156.64 40.4386 156.366 40.3852 156.137 40.2785C155.911 40.1718 155.736 40.0163 155.611 39.812C155.489 39.6077 155.428 39.3593 155.428 39.0666C155.428 38.5726 155.632 38.1976 156.041 37.9415C156.449 37.6824 157.036 37.536 157.802 37.5025L158.725 37.4568V37.0955C158.725 36.5863 158.625 36.2235 158.424 36.007C158.222 35.7905 157.925 35.6823 157.532 35.6823C157.276 35.6823 157.029 35.7158 156.791 35.7829C156.556 35.8469 156.317 35.9399 156.073 36.0619L155.926 35.6777C156.164 35.5649 156.419 35.4719 156.69 35.3987C156.965 35.3256 157.251 35.289 157.55 35.289ZM158.721 37.818L157.852 37.8546C157.221 37.8851 156.741 37.9979 156.411 38.1931C156.082 38.3882 155.917 38.6809 155.917 39.0711C155.917 39.3852 156.015 39.626 156.21 39.7937C156.408 39.9614 156.683 40.0453 157.033 40.0453C157.579 40.0453 157.995 39.8898 158.282 39.5788C158.571 39.2678 158.718 38.844 158.721 38.3074V37.818Z" fill="#11142D"/>
<path d="M162.983 35.2798C163.623 35.2798 164.119 35.4948 164.469 35.9247C164.823 36.3546 165 36.9887 165 37.8272C165 38.3882 164.916 38.8638 164.748 39.2541C164.581 39.6413 164.341 39.9355 164.03 40.1367C163.723 40.338 163.352 40.4386 162.919 40.4386C162.62 40.4386 162.36 40.3944 162.137 40.3059C161.918 40.2145 161.735 40.0925 161.588 39.9401C161.442 39.7846 161.329 39.6138 161.25 39.4279H161.218C161.227 39.6016 161.235 39.7831 161.241 39.9721C161.247 40.1611 161.25 40.3395 161.25 40.5072V42.5469H160.783V35.3759H161.168L161.222 36.3683H161.25C161.332 36.1793 161.448 36.0009 161.597 35.8332C161.747 35.6655 161.936 35.5314 162.165 35.4308C162.393 35.3301 162.666 35.2798 162.983 35.2798ZM162.924 35.6869C162.549 35.6869 162.236 35.7692 161.986 35.9338C161.739 36.0954 161.555 36.3332 161.433 36.6473C161.314 36.9583 161.253 37.3394 161.25 37.7906V37.8684C161.25 38.3531 161.309 38.7571 161.428 39.0803C161.55 39.4004 161.732 39.6398 161.972 39.7983C162.216 39.9568 162.518 40.0361 162.878 40.0361C163.232 40.0361 163.53 39.9492 163.774 39.7754C164.018 39.6016 164.204 39.3501 164.332 39.0208C164.46 38.6916 164.524 38.2921 164.524 37.8226C164.524 37.1244 164.39 36.5939 164.122 36.2311C163.857 35.8683 163.457 35.6869 162.924 35.6869Z" fill="#11142D"/>
<path d="M60.52 26.1905V7.67485H64.4461V22.9484H71.9562V26.1905H60.52Z" fill="#11142D"/>
<path d="M81.0788 12.0315V26.1905H77.216V12.0315H81.0788ZM79.1537 6.48438C79.7279 6.48438 80.2218 6.61946 80.6355 6.88964C81.0492 7.15138 81.2561 7.6453 81.2561 8.3714C81.2561 9.08907 81.0492 9.58721 80.6355 9.86583C80.2218 10.136 79.7279 10.2711 79.1537 10.2711C78.5712 10.2711 78.073 10.136 77.6593 9.86583C77.254 9.58721 77.0514 9.08907 77.0514 8.3714C77.0514 7.6453 77.254 7.15138 77.6593 6.88964C78.073 6.61946 78.5712 6.48438 79.1537 6.48438Z" fill="#11142D"/>
<path d="M91.3412 6.48438V11.069C91.3412 11.6009 91.3243 12.1286 91.2905 12.652C91.2652 13.1755 91.2314 13.5808 91.1892 13.8679H91.3412C91.7127 13.2853 92.2192 12.7914 92.8609 12.3861C93.5026 11.9724 94.3342 11.7655 95.3558 11.7655C96.9431 11.7655 98.2307 12.3861 99.2186 13.6272C100.206 14.8684 100.7 16.6878 100.7 19.0857C100.7 20.6983 100.472 22.0534 100.016 23.151C99.5605 24.2402 98.923 25.0634 98.1041 25.6206C97.2851 26.1694 96.3352 26.4438 95.2545 26.4438C94.216 26.4438 93.397 26.2581 92.7976 25.8866C92.1981 25.5151 91.7127 25.0972 91.3412 24.6328H91.0752L90.4293 26.1905H87.4784V6.48438H91.3412ZM94.1147 14.8557C93.4393 14.8557 92.9031 14.995 92.5063 15.2736C92.1095 15.5522 91.8182 15.9702 91.6324 16.5274C91.4551 17.0847 91.358 17.7897 91.3412 18.6424V19.0603C91.3412 20.4366 91.5438 21.492 91.9491 22.2265C92.3543 22.9526 93.0931 23.3157 94.1654 23.3157C94.959 23.3157 95.588 22.9484 96.0524 22.2138C96.5252 21.4793 96.7616 20.4197 96.7616 19.035C96.7616 17.6504 96.5252 16.6076 96.0524 15.9069C95.5796 15.2061 94.9337 14.8557 94.1147 14.8557Z" fill="#11142D"/>
<path d="M112.065 11.7655C113.373 11.7655 114.5 12.0188 115.446 12.5254C116.392 13.0235 117.122 13.7496 117.637 14.7037C118.152 15.6578 118.41 16.8229 118.41 18.1992V20.0735H109.278C109.321 21.1627 109.646 22.0196 110.253 22.6444C110.87 23.2608 111.723 23.569 112.812 23.569C113.715 23.569 114.543 23.4761 115.294 23.2903C116.045 23.1046 116.818 22.826 117.612 22.4545V25.4433C116.911 25.7895 116.176 26.0428 115.408 26.2032C114.648 26.3636 113.724 26.4438 112.634 26.4438C111.216 26.4438 109.958 26.1821 108.86 25.6586C107.771 25.1351 106.914 24.3373 106.289 23.265C105.673 22.1927 105.365 20.8418 105.365 19.2123C105.365 17.5575 105.644 16.1813 106.201 15.0837C106.766 13.9776 107.552 13.1502 108.556 12.6014C109.561 12.0441 110.731 11.7655 112.065 11.7655ZM112.09 14.5137C111.338 14.5137 110.714 14.7544 110.215 15.2356C109.726 15.7169 109.443 16.4725 109.367 17.5026H114.787C114.779 16.9285 114.673 16.4177 114.471 15.9702C114.277 15.5227 113.981 15.1681 113.584 14.9064C113.196 14.6446 112.698 14.5137 112.09 14.5137Z" fill="#11142D"/>
<path d="M131.787 11.7655C131.982 11.7655 132.205 11.7782 132.459 11.8035C132.72 11.8204 132.931 11.8457 133.092 11.8795L132.801 15.5016C132.674 15.4594 132.492 15.4298 132.256 15.4129C132.028 15.3876 131.83 15.3749 131.661 15.3749C131.163 15.3749 130.677 15.4383 130.204 15.5649C129.74 15.6916 129.322 15.8984 128.951 16.1855C128.579 16.4641 128.284 16.8356 128.064 17.3C127.853 17.7559 127.747 18.3174 127.747 18.9844V26.1905H123.885V12.0315H126.81L127.38 14.4124H127.57C127.849 13.9312 128.195 13.4921 128.609 13.0953C129.031 12.69 129.508 12.3692 130.04 12.1328C130.58 11.8879 131.163 11.7655 131.787 11.7655Z" fill="#11142D"/>
<path d="M0 10.0867C0 4.51596 4.51596 0 10.0867 0H36.0238C41.5945 0 46.1105 4.51596 46.1105 10.0867V36.0238C46.1105 41.5945 41.5945 46.1105 36.0238 46.1105H10.0867C4.51596 46.1105 0 41.5945 0 36.0238V10.0867Z" fill="#3F51B5"/>
<path fill-rule="evenodd" clip-rule="evenodd" d="M28.0825 30.4837H36.437V15.4216H35.0581V27.5336C35.0581 27.8394 34.7975 28.0872 34.4749 28.0872C31.3481 28.0872 28.893 29.2349 27.0878 30.5783C27.409 30.5174 27.7407 30.4837 28.0825 30.4837ZM28.6277 28.3L28.6235 28.3011L28.6211 28.303L28.6277 28.3ZM35.0581 13.7615H37.3114C37.7945 13.7615 38.1853 14.133 38.1853 14.5909V31.3138C38.1853 31.7717 37.7945 32.1441 37.3114 32.1441H28.0825C25.5824 32.1441 23.5279 34.9231 23.492 34.9717L23.4917 34.9721C23.4895 34.9748 23.4865 34.9769 23.4843 34.9798C23.4481 35.0289 23.406 35.0738 23.3594 35.1147L23.3554 35.1177C23.3469 35.1241 23.3387 35.1302 23.3305 35.137C23.2855 35.1736 23.2362 35.2058 23.1832 35.2334C23.1794 35.235 23.1759 35.2369 23.1721 35.239L23.1718 35.2392C23.1271 35.2615 23.0787 35.2811 23.0291 35.2959C23.0204 35.2985 23.0118 35.3 23.0031 35.3015C22.9992 35.3021 22.9952 35.3028 22.9913 35.3036C22.9818 35.3065 22.972 35.3077 22.9625 35.3098C22.899 35.3239 22.8343 35.3323 22.7706 35.3323C22.7678 35.3323 22.7653 35.3318 22.7629 35.3315C22.7615 35.3313 22.7602 35.3311 22.7588 35.3311C22.7026 35.33 22.6465 35.3231 22.591 35.312C22.5844 35.3105 22.5778 35.3092 22.5711 35.3078C22.5611 35.3058 22.551 35.3038 22.5407 35.3011C22.5312 35.2988 22.5212 35.2972 22.5116 35.2943C22.4636 35.2802 22.4184 35.2624 22.3754 35.2418C22.3697 35.2391 22.3644 35.2358 22.3592 35.2326C22.3535 35.2291 22.3479 35.2257 22.3422 35.2231C22.2979 35.199 22.2572 35.172 22.2186 35.142C22.2135 35.1379 22.2083 35.1339 22.2031 35.13C22.1947 35.1236 22.1864 35.1173 22.1786 35.1103C22.1342 35.071 22.0937 35.0281 22.058 34.9808C22.057 34.9792 22.0555 34.9779 22.054 34.9766C22.0525 34.9753 22.0509 34.9739 22.0497 34.9721C22.0201 34.9319 19.9632 32.1441 17.4592 32.1441H8.2309C7.74782 32.1441 7.35614 31.7717 7.35614 31.3138V14.5909C7.35614 14.133 7.74782 13.7615 8.2309 13.7615H17.5215C20.1181 13.7615 21.8535 15.242 22.7706 16.3139C22.8865 16.1789 23.0164 16.0373 23.158 15.8933C23.9076 14.7804 25.1608 13.3274 27.0782 12.1741C27.0825 12.1715 27.0871 12.169 27.0916 12.1664C27.0961 12.1639 27.1006 12.1614 27.105 12.1588C28.348 11.4152 29.8736 10.8047 31.7222 10.4905L31.7624 10.4758L31.7751 10.4812C32.6102 10.3423 33.5032 10.2573 34.4749 10.2573C34.7975 10.2573 35.0581 10.5051 35.0581 10.8109V13.7615ZM12.2771 20.1523C13.0337 19.4128 14.0599 18.9973 15.13 18.9973C16.2001 18.9973 17.2263 19.4128 17.9829 20.1523C18.7396 20.8919 19.1647 21.895 19.1647 22.9409H17.6517C17.3842 22.9409 17.1276 23.0448 16.9384 23.2297C16.7493 23.4146 16.643 23.6654 16.643 23.9268V26.3916C16.643 26.6531 16.7493 26.9039 16.9384 27.0888C17.1276 27.2737 17.3842 27.3775 17.6517 27.3775H19.1647C19.4322 27.3775 19.6887 27.2737 19.8779 27.0888C20.0671 26.9039 20.1733 26.6531 20.1733 26.3916V22.9409C20.1733 20.2183 17.9154 18.0114 15.13 18.0114C12.3446 18.0114 10.0867 20.2183 10.0867 22.9409V26.3916C10.0867 26.6531 10.1929 26.9039 10.3821 27.0888C10.5713 27.2737 10.8278 27.3775 11.0953 27.3775H12.6083C12.8759 27.3775 13.1324 27.2737 13.3216 27.0888C13.5107 26.9039 13.617 26.6531 13.617 26.3916V23.9268C13.617 23.6654 13.5107 23.4146 13.3216 23.2297C13.1324 23.0448 12.8759 22.9409 12.6083 22.9409H11.0953C11.0953 21.895 11.5204 20.8919 12.2771 20.1523ZM11.0953 26.3916V23.9268H12.6083V26.3916H11.0953ZM17.6517 26.3916V23.9268H19.1647V26.3916H17.6517Z" fill="white"/>
</svg>
