<svg width="40" height="12" viewBox="0 0 40 12" fill="none" xmlns="http://www.w3.org/2000/svg">
<g clip-path="url(#clip0_7308_1191)">
<path fill-rule="evenodd" clip-rule="evenodd" d="M6.92728 1.19324C6.78885 0.968649 6.60974 0.774248 6.39842 0.618802C6.18361 0.472049 5.94979 0.356877 5.70211 0.27916C5.434 0.191012 5.15691 0.132393 4.87494 0.104061C4.54573 0.0726962 4.21651 0.0562015 3.88566 0.0577242H1.02399C0.743546 0.0324261 0.497933 0.243119 0.479871 0.524588C0.479871 0.524588 0.479871 0.541087 0.479871 0.549875V5.21397C0.876365 6.06781 1.53492 6.7725 2.36089 7.22439V6.28772C2.33396 5.98412 2.55751 5.71633 2.86154 5.69104H3.72007C4.88987 5.69104 5.78431 5.4441 6.40112 4.95215C7.01695 4.46 7.32983 3.73164 7.3386 2.7635C7.34011 2.48562 7.30734 2.2073 7.2417 1.93646C7.17647 1.67335 7.07038 1.42325 6.92728 1.19324ZM5.25078 3.59074C5.15085 3.76311 5.0016 3.90206 4.82454 3.99009C4.63085 4.08311 4.42199 4.13836 4.20872 4.15314C3.97488 4.18309 3.73792 4.19807 3.50258 4.19655H2.67833C2.47997 4.19655 2.35798 4.03676 2.35798 3.80014V1.87666C2.34456 1.69722 2.49955 1.55047 2.67833 1.57152H3.50258C3.76918 1.57152 4.02107 1.57912 4.25641 1.59562C4.46818 1.60442 4.67541 1.65544 4.86619 1.7451C5.04367 1.82271 5.19098 1.9559 5.28777 2.12328C5.39689 2.34776 5.4473 2.59785 5.434 2.84751C5.43843 3.10619 5.37581 3.36203 5.25078 3.58803V3.59074ZM2.36209 7.50554C1.65745 7.24968 1.01492 6.84448 0.479871 6.31639V8.57039C0.454342 8.75156 0.584017 8.91774 0.766041 8.93565H2.05957C2.40254 8.93565 2.36209 8.56767 2.36209 8.56767V7.50554ZM20.1383 2.51394H19.0234C18.8029 2.49896 18.605 2.64713 18.5541 2.86076L17.2573 6.44665C17.2573 6.44665 16.1126 3.18109 16.0263 2.92827C15.9771 2.6874 15.7685 2.51395 15.5243 2.5109H14.4957C14.129 2.5109 14.129 2.79813 14.1783 2.91025C14.2274 3.02249 15.6316 6.88767 16.1814 8.36708C16.2679 8.54976 16.3289 8.74265 16.3617 8.94151C16.3259 9.13745 16.253 9.32589 16.1439 9.49359C16.1024 9.56371 16.0547 9.63112 16.0011 9.69386C17.0607 9.37842 18.2904 8.22651 18.909 6.98341C19.5316 5.26021 20.3532 2.96268 20.3902 2.84437C20.4305 2.66364 20.4305 2.51394 20.1383 2.51394ZM15.1664 10.0439C15.0695 10.0424 14.9741 10.0336 14.8802 10.0213C14.7623 10.0037 14.5388 10.0213 14.5388 10.2219V11.0835C14.5388 11.4141 14.6997 11.4382 14.7819 11.4604C15.0473 11.519 15.3182 11.5472 15.5895 11.5458C15.91 11.5546 16.2274 11.4887 16.5197 11.3543C16.7849 11.2195 17.0218 11.0312 17.2142 10.8021C17.4331 10.5525 17.6183 10.2745 17.7644 9.975C17.9223 9.65782 18.0727 9.30634 18.2158 8.92186L18.3828 8.46434C18.0504 8.79476 16.5854 10.1814 15.1664 10.0439ZM13.4776 3.5444C13.4167 3.39926 13.3331 3.26477 13.2319 3.14494C13.1274 3.03584 13.0099 2.93858 12.8817 2.85782C12.7429 2.7635 12.5956 2.68274 12.4418 2.61728C12.2838 2.55562 12.1228 2.50776 11.9576 2.47064C11.7699 2.42852 11.5776 2.40171 11.3852 2.38825C11.1797 2.3673 10.9484 2.35536 10.6936 2.35536C8.98731 2.35536 8.01705 2.89538 7.78009 3.97522C7.7366 4.14749 7.8559 4.31638 8.03197 4.33136H9.0827C9.36888 4.33136 9.36888 4.24322 9.47746 3.99627C9.52516 3.86179 9.61028 3.74347 9.7233 3.65663C9.99185 3.48306 10.3093 3.40079 10.6267 3.42488C10.9247 3.3934 11.2228 3.4683 11.4715 3.63438C11.6608 3.8124 11.7726 4.05739 11.7831 4.31791C11.7831 4.67405 11.6745 4.90873 11.233 4.90873C10.1899 4.87117 9.06778 4.9895 8.4355 5.35444C7.80063 5.74358 7.42372 6.44209 7.4447 7.18683C7.43864 7.4709 7.49542 7.7552 7.6145 8.01397C7.72482 8.23845 7.88727 8.4359 8.0853 8.5883C8.29555 8.75915 8.53706 8.88627 8.79653 8.96095C9.08833 9.0417 9.39093 9.08046 9.69345 9.07623C10.1022 9.08349 10.5088 9.02531 10.8992 8.90396C11.2437 8.76187 11.5698 8.57798 11.8694 8.35513V8.55693C11.8694 8.75449 11.9293 8.93272 12.1556 8.93272H13.3719C13.6177 8.93272 13.6745 8.75764 13.6745 8.53902V4.78011C13.6761 4.54542 13.6597 4.31172 13.6268 4.07856C13.5986 3.89587 13.5495 3.71666 13.4776 3.5444ZM11.8145 7.23775C11.8145 7.23775 11.5002 7.8988 10.3837 7.8988C10.117 7.91106 9.85146 7.83736 9.62791 7.68962C9.42825 7.53375 9.32118 7.28713 9.34173 7.03443C9.31653 6.69175 9.50429 6.37001 9.81447 6.22487C10.2658 6.0499 10.7473 5.96914 11.2318 5.98554C11.5463 5.93919 11.8279 6.18472 11.8264 6.50331L11.8145 7.23775Z" fill="#333333"/>
<path fill-rule="evenodd" clip-rule="evenodd" d="M39.6268 4.82019C39.9145 5.28403 39.9145 5.87214 39.6268 6.33705C39.3407 6.77243 37.7805 8.44462 37.2663 8.98194C36.819 9.44685 36.2154 9.91816 35.618 9.91816H23.2295C21.5527 9.91816 21.4531 9.34383 21.4531 8.0634V2.83855C21.4531 1.52652 21.8388 1.14368 22.9866 1.14368H35.6463C36.238 1.14368 36.7684 1.44891 37.3633 2.06362C37.8833 2.58845 39.4197 4.50931 39.6268 4.82019Z" fill="#33CCCC"/>
<path fill-rule="evenodd" clip-rule="evenodd" d="M37.1709 6.79656C36.7954 7.81212 35.8058 8.46427 34.7283 8.40761C33.0795 8.40761 31.9796 7.28111 31.9796 5.5922C31.9796 3.90352 33.1242 2.72025 34.67 2.72025C36.2155 2.72025 37.2454 3.79443 37.311 5.52642C37.311 5.74764 37.2571 5.94381 36.9802 5.94381H33.4821C33.5058 6.87122 33.9488 7.37979 34.7385 7.37979C35.1678 7.39008 35.5627 7.14922 35.7519 6.76517C35.8264 6.65566 35.9504 6.59281 36.0813 6.59433H36.9833C37.0977 6.58988 37.1889 6.69321 37.1679 6.80685L37.1709 6.79656ZM24.2655 3.1629V3.13154C24.2655 2.96263 24.2655 2.79808 23.9794 2.79808H22.9404C22.6974 2.79808 22.6856 2.92962 22.6856 3.13761V4.51541C23.0953 3.9437 23.638 3.47877 24.2655 3.1629ZM31.2227 8.14862V4.74858C31.2227 3.35602 30.6103 2.66064 29.3851 2.66064C29.0437 2.66477 28.7113 2.76345 28.4236 2.94775C28.1062 3.1464 27.823 3.39496 27.5846 3.68372C27.4774 3.37078 27.2671 3.10472 26.9897 2.92823C26.6739 2.75323 26.3163 2.66772 25.9569 2.68267C25.4265 2.68584 24.9138 2.86386 24.4948 3.18863C24.4025 3.28123 22.6824 4.6246 22.6824 6.02608V8.1545C22.6824 8.22027 22.6482 8.47926 22.9375 8.47926H24.0163C24.3517 8.47926 24.3205 8.25782 24.3205 8.16675V4.72036C24.5008 4.47493 24.8692 3.8931 25.4785 3.8931C25.6768 3.8752 25.8707 3.96626 25.9825 4.13094C26.1046 4.37603 26.1584 4.6499 26.1373 4.92367V8.16056C26.1373 8.22646 26.1032 8.48535 26.3922 8.48535H27.4595C27.7934 8.48535 27.762 8.26401 27.762 8.17099V4.70808C27.957 4.46462 28.3344 3.88085 28.9217 3.88085C29.1226 3.86444 29.3164 3.95455 29.4343 4.11878C29.5581 4.36421 29.6129 4.63797 29.5908 4.91184V8.14862C29.5908 8.21462 29.5563 8.47306 29.8456 8.47306H30.9247C31.263 8.4569 31.2227 8.23839 31.2227 8.14862ZM34.6759 3.79129C34.0202 3.79129 33.5775 4.24881 33.4806 5.00137H35.8264C35.7669 4.34314 35.412 3.79129 34.6759 3.79129Z" fill="white"/>
</g>
<defs>
<clipPath id="clip0_7308_1191">
<rect width="39.5419" height="11.63" fill="white" transform="translate(0.396484 0.0118408)"/>
</clipPath>
</defs>
</svg>
